<svg id="visual" viewBox="0 0 900 150" width="900" height="150" xmlns="http://www.w3.org/2000/svg" xmlns:xlink="http://www.w3.org/1999/xlink" version="1.1"><rect x="0" y="0" width="900" height="150" fill="#1e2125"></rect><path d="M0 66L25 74.7C50 83.3 100 100.7 150 101.5C200 102.3 250 86.7 300 86.8C350 87 400 103 450 104.7C500 106.3 550 93.7 600 94C650 94.3 700 107.7 750 108.8C800 110 850 99 875 93.5L900 88L900 151L875 151C850 151 800 151 750 151C700 151 650 151 600 151C550 151 500 151 450 151C400 151 350 151 300 151C250 151 200 151 150 151C100 151 50 151 25 151L0 151Z" fill="#e9dfce" stroke-linecap="round" stroke-linejoin="miter"></path></svg>