<svg id="visual" viewBox="0 0 900 250" width="900" height="250" xmlns="http://www.w3.org/2000/svg" xmlns:xlink="http://www.w3.org/1999/xlink" version="1.1"><rect x="0" y="0" width="900" height="250" fill="#1b1c21"></rect>
<path d="M0 40L21.5 40.3C43 40.7 86 41.3 128.8 38.3C171.7 35.3 214.3 28.7 257.2 32.2C300 35.7 343 49.3 385.8 51.2C428.7 53 471.3 43 514.2 37.7C557 32.3 600 31.7 642.8 31C685.7 30.3 728.3 29.7 771.2 31.2C814 32.7 857 36.3 878.5 38.2L900 40L900 0L878.5 0C857 0 814 0 771.2 0C728.3 0 685.7 0 642.8 0C600 0 557 0 514.2 0C471.3 0 428.7 0 385.8 0C343 0 300 0 257.2 0C214.3 0 171.7 0 128.8 0C86 0 43 0 21.5 0L0 0Z" fill="#ee6030"></path>
<path d="M0 91L21.5 93.3C43 95.7 86 100.3 128.8 98.5C171.7 96.7 214.3 88.3 257.2 88C300 87.7 343 95.3 385.8 98.2C428.7 101 471.3 99 514.2 96.7C557 94.3 600 91.7 642.8 91.2C685.7 90.7 728.3 92.3 771.2 94.2C814 96 857 98 878.5 99L900 100L900 0L878.5 0C857 0 814 0 771.2 0C728.3 0 685.7 0 642.8 0C600 0 557 0 514.2 0C471.3 0 428.7 0 385.8 0C343 0 300 0 257.2 0C214.3 0 171.7 0 128.8 0C86 0 43 0 21.5 0L0 0Z" fill="#ef744a"></path>
<path d="M0 94L21.5 95.5C43 97 86 100 128.8 101.5C171.7 103 214.3 103 257.2 109.8C300 116.7 343 130.3 385.8 127.3C428.7 124.3 471.3 104.7 514.2 100.3C557 96 600 107 642.8 117C685.7 127 728.3 136 771.2 134.8C814 133.7 857 122.3 878.5 116.7L900 111L900 0L878.5 0C857 0 814 0 771.2 0C728.3 0 685.7 0 642.8 0C600 0 557 0 514.2 0C471.3 0 428.7 0 385.8 0C343 0 300 0 257.2 0C214.3 0 171.7 0 128.8 0C86 0 43 0 21.5 0L0 0Z" fill="#ee8662"></path>
<path d="M0 169L21.5 159.3C43 149.7 86 130.3 128.8 123.3C171.7 116.3 214.3 121.7 257.2 132.3C300 143 343 159 385.8 162.7C428.7 166.3 471.3 157.7 514.2 148.7C557 139.7 600 130.3 642.8 130.5C685.7 130.7 728.3 140.3 771.2 148.2C814 156 857 162 878.5 165L900 168L900 0L878.5 0C857 0 814 0 771.2 0C728.3 0 685.7 0 642.8 0C600 0 557 0 514.2 0C471.3 0 428.7 0 385.8 0C343 0 300 0 257.2 0C214.3 0 171.7 0 128.8 0C86 0 43 0 21.5 0L0 0Z" fill="#ec977b"></path>
</svg>